<svg version="1.1" xmlns="http://www.w3.org/2000/svg" height="20" width="20" viewBox="0 0 128 128"><path d="M120 64A56 56 0 1 1 64 8a54.2 54.2 0 0 1 31.6 10.8l9.5-9.5a4 4 0 0 1 6.8 2.3l4 28v.2a4 4 0 0 1 0 .6v.3a4 4 0 0 1-.1.6l-.1.3a4 4 0 0 1-.3.5l-.1.2a4 4 0 0 1-.4.5l-.1.2-.3.2-.3.2-.4.2-.3.2-.4.1a1.3 1.3 0 0 1-.4.1h-1.3l-28-4a4 4 0 0 1-2.2-6.8l8.8-8.8A46 46 0 0 0 64 16a48 48 0 1 0 48 48 4 4 0 1 1 8 0zm-78.7 7.6l-4 3.6V80h22.4v-5H46.6l3.6-3.5c4.3-3.8 8.3-8 8.3-13.5 0-6-3.8-10-10.5-10a17.3 17.3 0 0 0-10.3 3.3h-.2l2.1 5.3a12.2 12.2 0 0 1 7-2.5c4 0 5.7 2.6 5.7 4.2 0 3.4-4.3 7.2-11 13.3zm43 8.4v-6H88v-5h-3.7v-8h-6.5v8h-7.3l8.8-21h-6.1L64 69.4V74h13.8v6z"></path></svg>