<svg  version="1.1" xmlns="http://www.w3.org/2000/svg" height="20" width="20" viewBox="0 0 128 128" role="presentation" aria-hidden="true" focusable="false"><path d="M92 100a10 10 0 1 1-10 10 10 10 0 0 1 10-10zm-66 10a10 10 0 1 0 10-10 10 10 0 0 0-10 10zM16 56h88.2a8 8 0 0 1 7.6 5.5l7.8 26.3a8 8 0 0 1 .4 2.5V106a6 6 0 0 1-6 6h-6.1a16 16 0 1 0-31.8 0H52a16 16 0 1 0-31.8 0H16a8 8 0 0 1-8-8V64a8 8 0 0 1 8-8zm72 24l25 8-7-24H88zm-24 0h16V64H64zm-24 0h16V64H40zm-24 0h16V64H16zm28.2-44.6l8 4.5 4.4 8a.4.4 0 0 0 .6 0l1-1a.4.4 0 0 0 0-.3V37l6.5-5.9L76.1 46a1.4 1.4 0 0 0 2 .4l1-.5a1.4 1.4 0 0 0 .5-1.8L72 24.2l9-8.4a10.2 10.2 0 0 0 3-6.4A1.4 1.4 0 0 0 82.6 8a10.2 10.2 0 0 0-6.5 2.9L67.6 20l-19.8-7.5a1.4 1.4 0 0 0-1.8.6l-.5 1A1.4 1.4 0 0 0 46 16l15 11.5-5.8 6.2h-9.7a.4.4 0 0 0-.3.1l-1 1a.4.4 0 0 0 0 .6z"></path></svg>