<svg version="1.1" xmlns="http://www.w3.org/2000/svg" height="20" width="20" viewBox="0 0 128 128"><rect x="60" y="74" width="8" height="44"></rect><rect x="60" y="94" width="8" height="40" rx="4" ry="4" transform="rotate(-90 64 114)"></rect><path d="M100 34H28a4 4 0 0 0-3.2 6.4l36 48a4 4 0 0 0 6.4 0l36-48A4 4 0 0 0 100 34zM78.7 61.7H49.3l-16-21.2h61.4z"></path><rect x="75.5" y="-1.4" width="6" height="81.9" rx="3" ry="3" transform="rotate(36.31 78.487 39.584)"></rect><circle cx="90.6" cy="21.9" r="8"></circle></svg>