<svg version="1.1" xmlns="http://www.w3.org/2000/svg" height="20" width="20" viewBox="0 0 128 128"><path d="M104 116a4 4 0 0 1-4 4H28a4 4 0 0 1 0-8h72a4 4 0 0 1 4 4zM40 96V50a2 2 0 0 1 2-2h44a2 2 0 0 1 2 2v6.4a20 20 0 0 1 0 39.2v.4a8 8 0 0 1-8 8H48a8 8 0 0 1-8-8zm48-31.3v22.6a12 12 0 0 0 0-22.6zM49 88a4 4 0 0 0 8 0V64a4 4 0 0 0-8 0zm-1-52a4 4 0 0 0 4-4V16a4 4 0 0 0-8 0v16a4 4 0 0 0 4 4zm16 4a4 4 0 0 0 4-4V12a4 4 0 0 0-8 0v24a4 4 0 0 0 4 4zm16-4a4 4 0 0 0 4-4V16a4 4 0 0 0-8 0v16a4 4 0 0 0 4 4z"></path></svg>