<svg version="1.1" xmlns="http://www.w3.org/2000/svg" height="20" width="20" viewBox="0 0 128 128"><path d="M18 18a10 10 0 1 1 10 10 10 10 0 0 1-10-10zm26 16s-9.8-2-16-2-16 2-16 2c-4 1-4.3 3.4-4 6l3.4 30.5a4.3 4.3 0 0 0 1.3 2.6l1.8 1.8a4.3 4.3 0 0 1 1.3 2.7l3.6 38.4a4.4 4.4 0 0 0 4.5 4h8.2a4.4 4.4 0 0 0 4.5-4L40 77.6a4.3 4.3 0 0 1 1.3-2.7l1.9-1.8a4.3 4.3 0 0 0 1.2-2.6L48 40c.3-2.6.1-5-3.9-6zm20 23a8 8 0 1 0-8-8 8 8 0 0 0 8 8zm11.2 2.4A73.6 73.6 0 0 0 64 58a73.6 73.6 0 0 0-11.2 1.4c-2.8.7-3 2.3-2.7 4.1l2.3 21a3 3 0 0 0 1 1.9l1.2 1.2a3 3 0 0 1 1 2l2.4 27.7a3.1 3.1 0 0 0 3.1 2.7H67a3.1 3.1 0 0 0 3.1-2.8l2.5-27.7a3 3 0 0 1 1-1.9l1.2-1.2a3 3 0 0 0 .9-1.8l2.4-21c.2-1.9 0-3.5-2.8-4.2zM100 28a10 10 0 1 0-10-10 10 10 0 0 0 10 10zm16 6s-9.8-2-16-2-16 2-16 2c-4 1-4.3 3.4-4 6l3.4 30.5a4.3 4.3 0 0 0 1.3 2.6l1.8 1.8a4.3 4.3 0 0 1 1.3 2.7l3.6 38.4a4.4 4.4 0 0 0 4.5 4h8.2a4.4 4.4 0 0 0 4.4-4l3.6-38.4a4.3 4.3 0 0 1 1.3-2.7l1.8-1.8a4.3 4.3 0 0 0 1.3-2.6L120 40c.3-2.6.1-5-3.9-6z"></path></svg>