<svg version="1.1" xmlns="http://www.w3.org/2000/svg" height="20" width="20" viewBox="0 0 128 128"><path d="M64 8a56 56 0 1 0 56 56A56 56 0 0 0 64 8zm0 104a48 48 0 0 1-36.6-79l31 31H28v8h38.3L95 100.6A47.8 47.8 0 0 1 64 112zm36.6-17l-23-23H84v-8H69.7L33 27.4A48 48 0 0 1 100.6 95zM92 64h8v8h-8zm0-10c0-7.7-5.9-14-13.2-14H78a2 2 0 0 1-2-2 10 10 0 0 0-10-10h-8a2 2 0 0 1 0-4h8a14 14 0 0 1 13.8 12c9 .6 16.2 8.4 16.2 18a2 2 0 0 1-4 0zm-8 0a2 2 0 0 1-4 0 2 2 0 0 0-2-2h-3a15 15 0 0 1-15-15 2 2 0 0 1 4 0 11 11 0 0 0 11 11h3a6 6 0 0 1 6 6z"></path></svg>