<svg version="1.1" xmlns="http://www.w3.org/2000/svg" height="20" width="20" viewBox="0 0 128 128"><path d="M61 34c0 9.9-6.3 18-14 18s-14-8.1-14-18 6.3-18 14-18 14 8.1 14 18zm20-18c-7.7 0-14 8.1-14 18s6.3 18 14 18 14-8.1 14-18-6.3-18-14-18zM16.5 47.4c-6.9 2.1-10.3 11-7.6 20S19.4 82.1 26.3 80c6.9-2.1 10.3-11 7.6-20S23.4 45.4 16.5 47.4zM94.2 60c-2.7 9 .7 18 7.6 20 6.9 2.1 14.6-3.6 17.3-12.5s-.7-18-7.6-20C104.6 45.4 96.9 51 94.2 60zM64 104c11.9 0 6.1 8 22 8 4.9-.2 10.9-5.3 11-16 .1-13.8-12.4-34-33-35-20.6 1-33.1 21.2-33 35 .1 10.7 6.1 15.8 11 16 15.9 0 10.1-8 22-8z"></path></svg>