<svg version="1.1" xmlns="http://www.w3.org/2000/svg" height="20" width="20" viewBox="0 0 128 128"><path d="M44.1 8.9L48 44a12 12 0 0 1-12 12h-3.6l3.4 59.8a4 4 0 0 1-4 4.2h-7.6a4 4 0 0 1-4-4.2L23.6 56H20A12 12 0 0 1 8 44l3.9-35.1a1 1 0 0 1 1-.9H15a1 1 0 0 1 1 1v19a4 4 0 0 0 4 4h4.8L26 9a1 1 0 0 1 1-1h2a1 1 0 0 1 1 1l1.2 23H36a4 4 0 0 0 4-4V9a1 1 0 0 1 1-1h2.1a1 1 0 0 1 1 .9zM60 24v48h8l-3.8 43.8a4 4 0 0 0 4 4.2h7.6a4 4 0 0 0 4-4.2L80 8h-4a16 16 0 0 0-16 16zm60 8c0-13.3-7.2-24-16-24S88 18.8 88 32c0 11 5 20.2 11.6 23l-3.4 60.8a4 4 0 0 0 4 4.2h7.6a4 4 0 0 0 4-4.2L108.4 55c6.7-2.8 11.6-12 11.6-23z"></path></svg>