<svg version="1.1" xmlns="http://www.w3.org/2000/svg" height="20" width="20" viewBox="0 0 128 128"><path d="M64.7 12.3a.8.8 0 0 0-1 0C57 18 38.4 37.8 59.2 59c.3.3 1.5 1.2 1.7-.3a.6.6 0 0 1 0-.1l3.2-21 3.2 20.8v.3c.3 1.3 1.2.7 1.6.4 21-21.1 2.5-40.8-4.2-46.8zM120 51.8v-.1a.8.8 0 0 0-.3-1C111.9 46.4 87 35.3 74.2 62c-.1.4-.6 1.8.9 1.5l20.8-4-18.4 10-.3.1c-1.2.7-.2 1.4.2 1.6C104.1 84 116.5 60 119.9 51.7zm-111.8.1a.8.8 0 0 1 .3-1c7.7-4.4 32.5-15.4 45.4 11.4.1.3.6 1.7-.9 1.5l-20.9-4 18.5 10h.2c1.2.7.3 1.4-.1 1.7C23.9 84.3 11.5 60.3 8 51.9zm94.5 64a.8.8 0 0 0 .8-.7c.8-8.8.7-36-28.9-36.9-.4 0-1.8.2-1 1.4l12.1 17.5-16.5-12.8-.2-.2c-1.2-.8-1.4.3-1.5.8-.7 29.7 26.2 31.3 35.2 31zm-77.1 0h-.1a.8.8 0 0 1-.8-.7c-.7-8.8-.7-36 29-36.9.3 0 1.8.2 1 1.4L42.3 97.3 59 84.4l.2-.2c1.1-.8 1.4.3 1.4.8.7 29.7-26.2 31.3-35.1 31z"></path></svg>