<svg version="1.1" xmlns="http://www.w3.org/2000/svg" height="20" width="20" viewBox="0 0 128 128"><path d="M8.7 79.2a3.8 3.8 0 0 1 5.5-1.3c21 15 34.5 9 50 2.2 14.5-6.5 30.8-13.7 53.6-1.4a4.5 4.5 0 0 1 1.8 5.9 3.9 3.9 0 0 1-5.4 2c-19.5-10.7-32.8-4.8-47 1.5-8.7 3.9-17.6 7.9-28 7.9A50 50 0 0 1 9.9 85.2a4.6 4.6 0 0 1-1.2-6zm109 15.5c-22.7-12.4-39-5-53.5 1.4-15.5 6.9-29 12.9-50-2.2a3.8 3.8 0 0 0-5.6 1.3 4.6 4.6 0 0 0 1.2 6A50 50 0 0 0 39.3 112c10.3 0 19.2-4 28-7.9 14-6.3 27.4-12.2 46.9-1.6a3.9 3.9 0 0 0 5.4-2 4.5 4.5 0 0 0-1.8-5.8zM100 56a12 12 0 1 0-12-12 12 12 0 0 0 12 12zM64.2 72c7.2-3.3 15.2-7 23.8-8.2 0 0-4-8.8-6.8-13.9l-18-29.2c-2.5-4.3-7.5-6-13.5-3.6L27.9 26a6.2 6.2 0 0 0-3.5 7.8 6 6 0 0 0 8 3.4L50 29.7a4 4 0 0 1 5 1.7l6 13.2L24 72c17.6 9.8 26.3 6.3 40.3 0z"></path></svg>