<svg version="1.1" xmlns="http://www.w3.org/2000/svg" height="20" width="20" viewBox="0 0 128 128"><path d="M102 40H58a2 2 0 0 0-2 2v46a8 8 0 0 0 8 8h32a8 8 0 0 0 8-8v-.4a20 20 0 0 0 0-39.2V42a2 2 0 0 0-2-2zM73 80a4 4 0 0 1-8 0V56a4 4 0 0 1 8 0zm39-12a12 12 0 0 1-8 11.3V56.7a12 12 0 0 1 8 11.3zm0-60H16a8 8 0 0 0-8 8v96a8 8 0 0 0 8 8h96a8 8 0 0 0 8-8v-6a2 2 0 0 0-2-2H50a2 2 0 0 1-2-2V26a2 2 0 0 1 2-2h14v8h32v-8h22a2 2 0 0 0 2-2v-6a8 8 0 0 0-8-8zM28 64a8 8 0 1 1 8-8 8 8 0 0 1-8 8zm0-24a8 8 0 1 1 8-8 8 8 0 0 1-8 8z"></path></svg>