<svg xmlns="http://www.w3.org/2000/svg" xmlns:xlink="http://www.w3.org/1999/xlink" width="15px" height="18px" viewBox="0 0 15 18"><path d="M12.598889,2.699762 C12.598889,2.20275 12.195981,1.799841 11.698969,1.799841 L2.699762,1.799841 C2.20275,1.799841 1.799841,2.20275 1.799841,2.699762 L1.799841,15.349777 L6.676297,11.866594 C6.989197,11.643094 7.409533,11.643094 7.722434,11.866594 L12.598889,15.349777 L12.598889,2.699762 Z M1.422989,17.830788 C0.82736,18.256238 0,17.830464 0,17.098493 L0,2.699762 C0,1.208725 1.208725,0 2.699762,0 L11.698969,0 C13.190006,0 14.398731,1.208725 14.398731,2.699762 L14.398731,17.098493 C14.398731,17.830464 13.571371,18.256238 12.975742,17.830788 L7.199365,13.704805 L1.422989,17.830788 Z"></path></svg>