<svg width="64" height="64" viewBox="0 0 64 64" xmlns="http://www.w3.org/2000/svg">
<path d="M40.8278 16.6327C42.5509 16.6327 43.9528 15.2308 43.9528 13.5077C43.9528 11.7846 42.5509 10.3826 40.8278 10.3826C39.1046 10.3826 37.7028 11.7846 37.7028 13.5077C37.7028 14.2114 37.9368 14.8614 38.3309 15.3844L33.1964 22.5596C32.89 22.4589 32.5631 22.4037 32.2234 22.4037C31.4023 22.4037 30.6545 22.7226 30.0963 23.2423L26.6739 21.3003C26.7195 21.0883 26.744 20.8686 26.744 20.6432C26.744 18.9201 25.3421 17.5182 23.619 17.5182C21.8959 17.5182 20.494 18.9201 20.494 20.6432C20.494 20.8686 20.5185 21.0883 20.5641 21.3003L17.1418 23.2423C16.5835 22.7226 15.8358 22.4038 15.0146 22.4038C13.2915 22.4038 11.8896 23.8058 11.8896 25.5289C11.8896 27.2521 13.2915 28.6541 15.0146 28.6541C16.7378 28.6541 18.1396 27.2521 18.1396 25.5289C18.1396 25.3036 18.1151 25.0838 18.0695 24.8718L21.4919 22.9298C22.0501 23.4496 22.7979 23.7684 23.619 23.7684C24.4401 23.7684 25.1878 23.4496 25.7461 22.9299L29.1685 24.8719C29.1229 25.0839 29.0984 25.3037 29.0984 25.5291C29.0984 27.2522 30.5003 28.6542 32.2234 28.6542C33.9466 28.6542 35.3485 27.2522 35.3485 25.5291C35.3485 24.8252 35.1144 24.1751 34.7203 23.6521L39.8548 16.4769C40.161 16.5774 40.488 16.6327 40.8278 16.6327ZM40.8278 12.2576C41.517 12.2576 42.0778 12.8183 42.0778 13.5077C42.0778 14.1969 41.517 14.7577 40.8278 14.7577C40.1385 14.7577 39.5778 14.1969 39.5778 13.5077C39.5776 12.8183 40.1384 12.2576 40.8278 12.2576ZM15.0143 26.7788C14.325 26.7788 13.7643 26.2181 13.7643 25.5287C13.7643 24.8393 14.325 24.2786 15.0143 24.2786C15.7035 24.2786 16.2643 24.8393 16.2643 25.5287C16.2643 26.2181 15.7035 26.7788 15.0143 26.7788ZM23.6188 21.8932C22.9295 21.8932 22.3688 21.3324 22.3688 20.6431C22.3688 19.9538 22.9295 19.3931 23.6188 19.3931C24.308 19.3931 24.8688 19.9538 24.8688 20.6431C24.8689 21.3324 24.308 21.8932 23.6188 21.8932ZM32.2233 26.7788C31.534 26.7788 30.9733 26.2181 30.9733 25.5287C30.9733 24.8393 31.534 24.2786 32.2233 24.2786C32.9126 24.2786 33.4734 24.8393 33.4734 25.5287C33.4734 26.2181 32.9125 26.7788 32.2233 26.7788Z"></path>
<path d="M52.3495 47.1204H45.7887H10.0535H2.65188C2.2235 47.1204 1.875 46.7719 1.875 46.3435V7.66616C1.875 7.23778 2.2235 6.88928 2.65188 6.88928H7.07137C7.58912 6.88928 8.00887 6.46966 8.00887 5.95178C8.00887 5.43391 7.58912 5.01428 7.07137 5.01428H2.65188C1.18963 5.01428 0 6.20391 0 7.66616V46.3435C0 47.8058 1.18963 48.9954 2.65188 48.9954H9.116V51.0587C9.116 52.234 10.0723 53.1903 11.2476 53.1903H20.6319L16.2144 61.815C15.9784 62.2759 16.1605 62.8408 16.6214 63.0769C16.7581 63.147 16.9041 63.1802 17.048 63.1802C17.3886 63.1802 17.7173 62.9939 17.8831 62.6698L22.7385 53.1903H33.1037L37.9591 62.6698C38.1251 62.9939 38.4536 63.1802 38.7943 63.1802C38.9381 63.1802 39.0841 63.1468 39.2209 63.0769C39.6818 62.8408 39.864 62.2759 39.6279 61.815L35.2104 53.1903H44.5946C45.77 53.1903 46.7262 52.2342 46.7262 51.0587V48.9954H52.3495C52.8672 48.9954 53.287 48.5758 53.287 48.0579C53.287 47.54 52.8672 47.1204 52.3495 47.1204ZM44.8512 51.0587C44.8512 51.2002 44.7361 51.3153 44.5946 51.3153H11.2476C11.1061 51.3153 10.991 51.2002 10.991 51.0587V48.9954H44.8512V51.0587Z"></path>
<path d="M10.8213 6.88939H23.6553H32.1867H53.1902C53.6185 6.88939 53.967 7.23789 53.967 7.66627V16.5801C53.967 17.098 54.3868 17.5176 54.9045 17.5176C55.4223 17.5176 55.842 17.098 55.842 16.5801V7.66627C55.842 6.20402 54.6524 5.01439 53.1902 5.01439H33.1243V3.17164C33.1243 1.87477 32.0692 0.819641 30.7722 0.819641H25.0699C23.773 0.819641 22.7178 1.87477 22.7178 3.17164V5.01439H10.8213C10.3035 5.01439 9.88379 5.43402 9.88379 5.95189C9.88379 6.46977 10.3035 6.88939 10.8213 6.88939ZM24.5928 3.17164C24.5928 2.90864 24.8068 2.69464 25.0699 2.69464H30.7722C31.0352 2.69464 31.2493 2.90864 31.2493 3.17164V5.01439H24.5929V3.17164H24.5928Z"></path>
<path d="M13.1128 33.4468C12.595 33.4468 12.1753 33.8664 12.1753 34.3843V42.6683C12.1753 43.1862 12.595 43.6058 13.1128 43.6058H16.9162C17.4339 43.6058 17.8537 43.1862 17.8537 42.6683V34.3843C17.8537 33.8664 17.4339 33.4468 16.9162 33.4468H13.1128ZM15.9787 41.7309H14.0503V35.3219H15.9787V41.7309Z"></path>
<path d="M21.717 28.6559C21.1993 28.6559 20.7795 29.0756 20.7795 29.5934V42.6686C20.7795 43.1864 21.1993 43.6061 21.717 43.6061H25.5204C26.0382 43.6061 26.4579 43.1864 26.4579 42.6686V29.5934C26.4579 29.0756 26.0382 28.6559 25.5204 28.6559H21.717ZM24.583 41.7311H22.6547V30.5309H24.583V41.7311Z"></path>
<path d="M30.3215 33.4468C29.8038 33.4468 29.384 33.8664 29.384 34.3843V42.6683C29.384 43.1862 29.8038 43.6058 30.3215 43.6058H34.1249C34.6427 43.6058 35.0624 43.1862 35.0624 42.6683V34.3843C35.0624 33.8664 34.6427 33.4468 34.1249 33.4468H30.3215ZM33.1874 41.7309H31.259V35.3219H33.1874V41.7309Z"></path>
<path d="M38.9263 38.9789C38.4085 38.9789 37.9888 39.3986 37.9888 39.9164V42.6686C37.9888 43.1864 38.4085 43.6061 38.9263 43.6061H42.7296C43.2474 43.6061 43.6671 43.1864 43.6671 42.6686C43.6671 42.1507 43.2474 41.7311 42.7296 41.7311H39.8638V39.9164C39.8638 39.3986 39.444 38.9789 38.9263 38.9789Z"></path>
<path d="M63.5219 48.0024L58.1435 38.6867C59.5062 37.2343 60.4984 35.4597 61.0284 33.4817C61.8755 30.3203 61.4408 27.0182 59.8043 24.1837C56.426 18.332 48.9172 16.3204 43.0659 19.6985C37.2145 23.0767 35.2027 30.5855 38.5809 36.4369C40.2174 39.2714 42.8598 41.2989 46.0212 42.1462C47.0769 42.429 48.148 42.5689 49.2124 42.5689C50.1427 42.5689 51.0675 42.4619 51.972 42.2502L57.3493 51.5662C58.0084 52.7083 59.2087 53.3474 60.4414 53.3473C61.0455 53.3473 61.6575 53.1937 62.2174 52.8707C63.3169 52.236 64 51.0527 64 49.7824C64 49.16 63.8348 48.5447 63.5219 48.0024ZM46.5064 40.335C43.8288 39.6175 41.5907 37.9002 40.2045 35.4994C37.3433 30.5434 39.0474 24.1837 44.0033 21.3223C45.6337 20.381 47.4153 19.934 49.175 19.934C52.7644 19.934 56.2604 21.7957 58.1804 25.1212C59.5664 27.5219 59.9347 30.3187 59.2172 32.9964C58.4997 35.6742 56.7823 37.912 54.3815 39.2982C51.9809 40.6843 49.1842 41.0523 46.5064 40.335ZM61.2803 51.2467C60.4737 51.7124 59.4387 51.4352 58.9733 50.6289L53.7998 41.6659C54.3183 41.4543 54.826 41.2068 55.3193 40.922C55.8129 40.637 56.2804 40.3198 56.723 39.9763L61.898 48.9397C62.0465 49.1973 62.125 49.4888 62.125 49.7825C62.125 50.3848 61.8013 50.9459 61.2803 51.2467Z"></path>
<path d="M57.6928 32.9513C58.3547 30.8193 58.1971 28.5368 57.249 26.5243C57.0282 26.0558 56.4697 25.855 56.0013 26.0756C55.5328 26.2964 55.3321 26.8549 55.5528 27.3233C56.3007 28.9108 56.4248 30.7119 55.9022 32.3951C55.3767 34.0876 54.2415 35.508 52.7056 36.3948C51.0803 37.3333 49.1867 37.5823 47.3741 37.0966C45.5613 36.6109 44.0461 35.4483 43.1078 33.823C41.1707 30.4679 42.3245 26.1624 45.6796 24.2253C48.1327 22.8091 51.1771 22.9984 53.436 24.7074C53.849 25.0199 54.4368 24.9385 54.7492 24.5255C55.0616 24.1126 54.9802 23.5246 54.5672 23.2123C51.7058 21.0471 47.8491 20.8075 44.742 22.6014C42.683 23.7901 41.2101 25.7096 40.5947 28.0061C39.9793 30.3026 40.2952 32.7014 41.484 34.7604C42.6727 36.8195 44.5922 38.2923 46.8887 38.9078C47.6556 39.1133 48.4338 39.2149 49.207 39.2149C50.7492 39.2149 52.2716 38.8104 53.643 38.0185C55.5888 36.8953 57.0271 35.0958 57.6928 32.9513Z"></path>
</svg>