<svg xmlns:svg="http://www.w3.org/2000/svg" xmlns="http://www.w3.org/2000/svg" viewBox="0 0 51.023602 50.141998" height="66.000000" width="66.149732" version="1.1">
	<style>
		.marker-ext, .marker-int{animation: map-cluster 4s infinite;transform-origin: center;}
		.marker-mid{animation: map-cluster-reverse 4s infinite;transform-origin: center}
		@keyframes map-cluster{
			50%{transform: rotate(360deg);}
			100%{transform: rotate(360deg);}
		}
		@keyframes map-cluster-reverse{
			50%{transform: rotate(-360deg);}
			100%{transform: rotate(-360deg);}
		}
	</style>
  <path id="path8" class="marker-ext" style="fill: #ff000054;fill-rule:evenodd;" d="m 31.3002,47.0571 0.8326,3.0814 C 45.7271,46.4962 53.7397,32.2087 50.1791,18.8755 l -3.0865,0.8131 C 50.2149,31.3599 43.2044,43.8712 31.3002,47.0571 Z M 3.9342,19.6749 C 0.8019,31.3548 7.8204,43.8803 19.7379,47.0613 l -0.8321,3.0815 C 5.299,46.5069 -2.7218,32.2061 0.8468,18.8653 M 3.9342,19.6749 0.8405,18.8886 Z M 9.7166,9.6813 C 18.3909,1.007 32.6796,1.0212 41.3374,9.7125 l 2.2252,-2.2874 c -9.8997,-9.8997 -26.2024,-9.8997 -36.1022,0 z"/>
  <path id="path6" class="marker-mid" style="fill: #f009;fill-rule:evenodd;" d="m 38.1171,12.8714 2.0144,-1.9672 C 32.13,2.8766 18.9297,2.8658 10.9154,10.88 l 1.9911,1.9911 c 6.9143,-6.9142 18.2966,-6.9137 25.2106,3e-4 z m 4.6243,8.0086 2.7172,-0.739 C 48.3359,30.9222 41.8577,42.4734 30.8653,45.4186 L 30.1307,42.7 c 9.489,-2.5398 15.09,-12.5111 12.6107,-21.82 z M 20.1631,45.42 20.9114,42.7051 C 11.4,40.1704 5.789,30.1716 8.2902,20.8493 L 5.5741,20.1061 C 2.6732,30.896 9.1549,42.474 20.1631,45.42 Z"/>
  <path id="path4" class="marker-int" style="fill: red;fill-rule:evenodd;" d="m 34.7263,16.2617 1.9073,-1.9454 C 30.5196,8.2236 20.4745,8.2315 14.3707,14.3353 l 1.9264,1.9264 c 5.054,-5.0541 13.3751,-5.0541 18.4292,0 z m 3.3735,5.829 c 1.9343,6.7689 -2.3584,14.141 -9.2096,15.9759 l 0.7054,2.6323 C 37.9899,38.4515 42.9392,29.6243 40.7344,21.3929 Z M 21.4383,40.7018 C 13.0595,38.4643 8.102,29.6692 10.275,21.4449 l 2.6349,0.6971 c -1.7952,6.7999 2.2982,14.0715 9.2258,15.9252 z"/>
  <path id="path2" style="fill: red;fill-rule:evenodd;" d="M 25.5117,14.5111 A 10.9655,10.9655 0 0 1 36.4773,25.4766 10.9655,10.9655 0 1 1 25.5117,14.5111 Z"/>
</svg>