<svg xmlns="http://www.w3.org/2000/svg" x="0px" y="0px" width="48" height="48" viewBox="0 0 172 172" style=" fill:#000000;"><g transform="translate(-25.8,-25.8) scale(1.3,1.3)"><g fill="none" fill-rule="nonzero" stroke="none" stroke-width="1" stroke-linecap="butt" stroke-linejoin="miter" stroke-miterlimit="10" stroke-dasharray="" stroke-dashoffset="0" font-family="none" font-weight="none" font-size="none" text-anchor="none" style="mix-blend-mode: normal"><path d="M0,172v-172h172v172z" fill="none"></path><g><path d="M150.5,132.58333c0,9.89717 -8.0195,17.91667 -17.91667,17.91667h-93.16667c-9.89358,0 -17.91667,-8.0195 -17.91667,-17.91667v-93.16667c0,-9.89717 8.02308,-17.91667 17.91667,-17.91667h93.16667c9.89717,0 17.91667,8.0195 17.91667,17.91667z" fill="#1976d2"></path><path d="M128.77425,64.64692c0.16483,-0.54108 0.24367,-1.04275 0.22217,-1.49067c-0.05375,-1.29717 -0.946,-2.23958 -3.04583,-2.23958h-9.38117c-2.36858,0 -3.4615,1.43333 -4.09933,2.87025c0,0 -5.848,12.03642 -12.58825,19.9735c-2.18583,2.29692 -3.29667,2.23958 -4.47917,2.23958c-0.63425,0 -2.236,-0.76683 -2.236,-2.87025v-18.57958c0,-2.48683 -0.61992,-3.6335 -2.623,-3.6335h-16.65892c-1.45842,0 -2.21808,1.14667 -2.21808,2.29692c0,2.39008 3.21783,2.96342 3.58333,9.66067v12.98242c0,3.15333 -0.54825,3.72667 -1.73075,3.72667c-3.18917,0 -9.46717,-10.75 -13.67042,-24.83967c-0.91017,-2.7735 -1.82033,-3.827 -4.18892,-3.827h-9.47075c-2.73408,0 -3.18917,1.34017 -3.18917,2.7735c0,2.58358 2.15,16.55142 13.88542,32.61192c8.51042,11.64583 19.72267,18.36458 29.6485,18.36458c6.01283,0 6.62917,-1.53008 6.62917,-3.92017v-10.64967c0.00358,-2.87025 0.65933,-3.34683 2.57283,-3.34683c1.36525,0 4.1495,0.89583 9.5245,7.16667c6.19917,7.23117 7.32433,10.75 10.879,10.75h9.38117c2.17867,0 3.42925,-0.91375 3.47942,-2.6875c0.01075,-0.4515 -0.05375,-0.95675 -0.20067,-1.51933c-0.69517,-2.064 -3.88433,-7.10933 -7.86183,-11.91817c-2.20375,-2.66242 -4.37883,-5.29975 -5.37858,-6.73308c-0.67008,-0.93525 -0.9245,-1.59458 -0.89225,-2.22525c0.03225,-0.66292 0.37625,-1.29358 0.89225,-2.17508c-0.09317,0 12.03283,-17.02442 13.21533,-22.76133z" fill="#ffffff"></path></g></g></g></svg>