<svg xmlns="http://www.w3.org/2000/svg" x="0px" y="0px" width="24" height="24" viewBox="0 0 172 172" style=" fill:#000000;"><g transform=""><g fill="none" fill-rule="nonzero" stroke="none" stroke-width="1" stroke-linecap="butt" stroke-linejoin="miter" stroke-miterlimit="10" stroke-dasharray="" stroke-dashoffset="0" font-family="none" font-weight="none" font-size="none" text-anchor="none" style="mix-blend-mode: normal"><path d="M0,172v-172h172v172z" fill="none"></path><path d="M25.8,172c-14.24895,0 -25.8,-11.55105 -25.8,-25.8v-120.4c0,-14.24895 11.55105,-25.8 25.8,-25.8h120.4c14.24895,0 25.8,11.55105 25.8,25.8v120.4c0,14.24895 -11.55105,25.8 -25.8,25.8z" fill="#e74c3c"></path><path d="" fill="none"></path><g fill="#ffffff"><path d="M89.56527,86.86501v0c0,6.04293 4.902,10.94493 10.94493,10.94493h20.27307c-3.48013,11.30613 -12.04573,19.87747 -24.424,22.16507c-19.67107,3.64067 -39.34213,-10.69267 -41.22267,-30.61027c-1.94933,-20.61133 14.21293,-37.95467 34.42867,-37.95467c5.7448,0 11.15707,1.4104 15.92147,3.89293c4.34013,2.26467 9.6492,1.35307 13.1064,-2.10987v0c5.4696,-5.4696 4.01907,-14.69453 -2.8552,-18.22627c-9.62053,-4.94213 -20.81773,-7.24693 -32.63413,-5.9512c-26.27587,2.87813 -47.644,24.22907 -50.52213,50.50493c-3.78973,34.572 23.17987,63.812 56.9836,63.812c36.50987,0 51.43947,-25.886 54.46093,-48.14853c1.38747,-10.20533 -6.7768,-19.21813 -17.07387,-19.2296l-26.43067,-0.0344c-6.04867,-0.01147 -10.9564,4.89053 -10.9564,10.94493z"></path></g></g></g></svg>