<svg>
	<symbol xmlns="http://www.w3.org/2000/svg" viewBox="0 0 24 24" id="checked-false">
		<path d="M5 2c-1.654 0-3 1.346-3 3v14c0 1.654 1.346 3 3 3h14c1.654 0 3-1.346 3-3v-14c0-1.654-1.346-3-3-3h-14zm19 3v14c0 2.761-2.238 5-5 5h-14c-2.762 0-5-2.239-5-5v-14c0-2.761 2.238-5 5-5h14c2.762 0 5 2.239 5 5z" />
	</symbol>
	<symbol xmlns="http://www.w3.org/2000/svg" viewBox="0 0 24 24" id="checked-true">
		<path d="M10.041 17l-4.5-4.319 1.395-1.435 3.08 2.937 7.021-7.183 1.422 1.409-8.418 8.591zm-5.041-15c-1.654 0-3 1.346-3 3v14c0 1.654 1.346 3 3 3h14c1.654 0 3-1.346 3-3v-14c0-1.654-1.346-3-3-3h-14zm19 3v14c0 2.761-2.238 5-5 5h-14c-2.762 0-5-2.239-5-5v-14c0-2.761 2.238-5 5-5h14c2.762 0 5 2.239 5 5z" />
	</symbol>
	<symbol xmlns="http://www.w3.org/2000/svg" viewBox="0 0 16 16" id="pinned">
		<path d="M 11.5625 2.019531 C 11.445313 2.011719 11.328125 2.019531 11.214844 2.039063 C 10.761719 2.109375 10.339844 2.386719 10.113281 2.835938 L 9.769531 3.523438 L 7.292969 6 L 5.5 6 C 4.835938 6 4.199219 6.265625 3.734375 6.734375 L 2.964844 7.5 L 5.378906 9.914063 L 2.023438 13.269531 L 2.726563 13.980469 L 6.085938 10.621094 L 8.5 13.035156 L 9.265625 12.265625 C 9.734375 11.800781 10 11.164063 10 10.5 L 10 8.707031 L 12.476563 6.230469 L 13.160156 5.886719 C 14.066406 5.4375 14.265625 4.199219 13.554688 3.484375 L 12.515625 2.445313 C 12.246094 2.179688 11.90625 2.039063 11.5625 2.019531 Z M 11.375 3.007813 C 11.523438 2.980469 11.683594 3.027344 11.808594 3.15625 L 12.84375 4.195313 C 13.09375 4.445313 13.03125 4.832031 12.714844 4.992188 L 11.882813 5.40625 L 9 8.292969 L 9 10.5 C 9 10.898438 8.84375 11.277344 8.5625 11.5625 L 8.5 11.621094 L 4.378906 7.5 L 4.4375 7.4375 C 4.722656 7.15625 5.101563 7 5.5 7 L 7.707031 7 L 10.59375 4.117188 L 11.007813 3.285156 C 11.085938 3.125 11.222656 3.03125 11.375 3.007813 Z">
		</path>
	</symbol>
	<symbol xmlns="http://www.w3.org/2000/svg" viewBox="0 0 16 16" id="unavailable">
		<path d="M 7.5 1 C 3.917969 1 1 3.917969 1 7.5 C 1 11.082031 3.917969 14 7.5 14 C 11.082031 14 14 11.082031 14 7.5 C 14 3.917969 11.082031 1 7.5 1 Z M 7.5 2 C 10.542969 2 13 4.457031 13 7.5 C 13 8.839844 12.519531 10.066406 11.726563 11.019531 L 3.980469 3.273438 C 4.933594 2.480469 6.160156 2 7.5 2 Z M 3.273438 3.980469 L 11.019531 11.726563 C 10.066406 12.519531 8.839844 13 7.5 13 C 4.457031 13 2 10.542969 2 7.5 C 2 6.160156 2.480469 4.933594 3.273438 3.980469 Z">
		</path>
	</symbol>
</svg>
