<svg xmlns="http://www.w3.org/2000/svg" x="0px" y="0px" width="32" height="32" viewBox="0 0 226 226" style=" fill:#000000;"><g fill="none" fill-rule="nonzero" stroke="none" stroke-width="1" stroke-linecap="butt" stroke-linejoin="miter" stroke-miterlimit="10" stroke-dasharray="" stroke-dashoffset="0" font-family="none" font-weight="none" font-size="none" text-anchor="none" style="mix-blend-mode: normal"><path d="M0,226v-226h226v226z" fill="none"></path><path d="M33.9,226c-18.72245,0 -33.9,-15.17755 -33.9,-33.9v-158.2c0,-18.72245 15.17755,-33.9 33.9,-33.9h158.2c18.72245,0 33.9,15.17755 33.9,33.9v158.2c0,18.72245 -15.17755,33.9 -33.9,33.9z" fill="#f1c40f"></path><g fill="#ffffff"><path d="M135.22348,36.725h-22.20238c-21.81465,0 -39.21806,17.289 -39.21806,50.85c0,20.1366 7.86268,34.9848 23.82958,42.3072l-29.7981,56.1384c-0.97251,1.83696 0,3.2544 1.55728,3.2544h13.82484c1.16955,0 1.95137,-0.4068 2.3391,-1.41744l27.97386,-55.78881h7.94531l-0.05085,55.78881c0,0.6102 0.58477,1.41744 1.36024,1.41744h13.02396c1.16955,0 1.55728,-0.6102 1.55728,-1.62084v-148.89516c0,-1.4238 -0.78182,-2.034 -2.14206,-2.034zM121.47491,119.35625h-9.53437c-9.53437,0 -22.24687,-7.37325 -22.24687,-31.78125c0,-25.43136 10.36704,-38.1375 22.24687,-38.1375h9.53437z"></path></g></g></svg>