<svg viewBox="0 0 145 87" xmlns="http://www.w3.org/2000/svg" xmlns:svg="http://www.w3.org/2000/svg">
   <path d="m2.56905,20.61297l140.46551,0m-134.31803,-18.9463l127.28327,0c3.89354,0 7.04986,3.20961 7.04986,7.16887l0,76.41812l-141.383,0l0,-76.41812c0,-3.95927 3.15632,-7.16887 7.04986,-7.16887z" fill="rgb(255, 255, 255)" id="svg_1" stroke="rgb(0, 0, 0)" stroke-width="2px"/>
    <ellipse cx="16.58216" cy="10.00714" fill="rgb(255, 255, 255)" id="svg_2" rx="1.92864" ry="1.9612" stroke="rgb(0, 0, 0)"/>
    <ellipse cx="10.5364" cy="10.00714" fill="rgb(255, 255, 255)" id="svg_3" rx="1.92864" ry="1.9612" stroke="rgb(0, 0, 0)"/>
    <ellipse cx="22.62692" cy="10.00714" fill="rgb(255, 255, 255)" id="svg_4" rx="1.92864" ry="1.9612" stroke="rgb(0, 0, 0)"/>
    <ellipse cx="7.66207" cy="27.46129" fill="rgb(113, 113, 113)" id="svg_5" rx="1.68492" ry="1.71336" stroke="rgb(100, 100, 100)" stroke-width="0px"/>
    <path d="m13.67258,27.60876l58.43229,0" fill="rgb(216, 216, 216)" id="svg_6" stroke="rgb(45, 33, 124)" stroke-linecap="round" stroke-width="3px"/>
    <ellipse cx="7.66207" cy="33.60604" fill="rgb(113, 113, 113)" id="svg_7" rx="1.68492" ry="1.71336" stroke="rgb(100, 100, 100)" stroke-width="0px"/>
    <path d="m13.67258,33.75351l20.19887,0" fill="rgb(216, 216, 216)" id="svg_8" stroke="rgb(184, 173, 57)" stroke-linecap="round" stroke-width="3px"/>
    <path d="m38.85067,33.75351l20.19887,0" fill="rgb(216, 216, 216)" id="svg_9" stroke="rgb(207, 178, 30)" stroke-linecap="round" stroke-width="3px"/>
    <path d="m64.02875,33.75351l20.19887,0" fill="rgb(216, 216, 216)" id="svg_10" stroke="rgb(173, 188, 59)" stroke-linecap="round" stroke-width="3px"/>
    <ellipse cx="7.66207" cy="39.75078" fill="rgb(113, 113, 113)" id="svg_11" rx="1.68492" ry="1.71336" stroke="rgb(100, 100, 100)" stroke-width="0px"/>
    <path d="m13.67258,39.89826l26.48231,0" fill="rgb(166, 166, 166)" id="svg_12" stroke="rgb(189, 189, 189)" stroke-linecap="round" stroke-width="3px"/>
    <path d="m44.89341,39.89826l24.74905,0" fill="rgb(166, 166, 166)" id="svg_13" stroke="rgb(189, 189, 189)" stroke-linecap="round" stroke-width="3px"/>
    <path d="m74.09999,39.89826l20.19887,0" fill="rgb(166, 166, 166)" id="svg_14" stroke="rgb(189, 189, 189)" stroke-linecap="round" stroke-width="3px"/>
    <ellipse cx="7.66207" cy="56.13678" fill="rgb(113, 113, 113)" id="svg_15" rx="1.68492" ry="1.71336" stroke="rgb(100, 100, 100)" stroke-width="0px"/>
    <path d="m13.67258,56.28425l58.43229,0" fill="rgb(216, 216, 216)" id="svg_16" stroke="rgb(45, 33, 124)" stroke-linecap="round" stroke-width="3px"/>
    <ellipse cx="7.66207" cy="62.28152" fill="rgb(113, 113, 113)" id="svg_17" rx="1.68492" ry="1.71336" stroke="rgb(100, 100, 100)" stroke-width="0px"/>
    <path d="m13.67258,62.429l20.19887,0" fill="rgb(216, 216, 216)" id="svg_18" stroke="rgb(184, 173, 57)" stroke-linecap="round" stroke-width="3px"/>
    <path d="m38.85067,62.429l20.19887,0" fill="rgb(216, 216, 216)" id="svg_19" stroke="rgb(207, 178, 30)" stroke-linecap="round" stroke-width="3px"/>
    <path d="m64.02875,62.429l20.19887,0" fill="rgb(216, 216, 216)" id="svg_20" stroke="rgb(173, 188, 59)" stroke-linecap="round" stroke-width="3px"/>
    <ellipse cx="7.66207" cy="68.42627" fill="rgb(113, 113, 113)" id="svg_21" rx="1.68492" ry="1.71336" stroke="rgb(100, 100, 100)" stroke-width="0px"/>
    <path d="m13.67258,68.57375l26.48231,0" fill="rgb(166, 166, 166)" id="svg_22" stroke="rgb(189, 189, 189)" stroke-linecap="round" stroke-width="3px"/>
    <path d="m44.89341,68.57375l24.74905,0" fill="rgb(166, 166, 166)" id="svg_23" stroke="rgb(189, 189, 189)" stroke-linecap="round" stroke-width="3px"/>
    <path d="m74.09999,68.57375l20.19887,0" fill="rgb(166, 166, 166)" id="svg_24" stroke="rgb(189, 189, 189)" stroke-linecap="round" stroke-width="3px"/>
    <path d="m108.66345,66.69448l9.4156,10.18594l16.22778,-16.50172" fill="rgba(216, 216, 216, 0)" id="svg_25" stroke="rgb(0, 0, 0)" stroke-linecap="round" stroke-width="4px"/>
</svg>