<svg viewBox="0 0 120 130" xmlns="http://www.w3.org/2000/svg" xmlns:svg="http://www.w3.org/2000/svg">
   <path d="m59.942,11.74028c-32.016,0 -57.942,25.984 -57.942,58s25.926,58 57.942,58c32.074,0 58.058,-25.984 58.058,-58s-25.984,-58 -58.058,-58zm0.058,104.4c-25.636,0 -46.4,-20.764 -46.4,-46.4s20.764,-46.4 46.4,-46.4s46.4,20.764 46.4,46.4s-20.764,46.4 -46.4,46.4zm2.9,-75.4l-8.7,0l0,34.8l30.45,18.27l4.35,-7.134l-26.1,-15.486l0,-30.45z" fill="#f3f3fb" id="svg_1" stroke="#313b45" stroke-width="5"/>
   <path d="m89.78913,68.74028l-3.69862,0l3.69862,-25.89035l-12.94518,0c-3.25479,0 -1.22055,-2.77397 -1.14657,-2.88493c4.77122,-8.43286 11.94655,-21.00817 21.52598,-37.79992l3.69862,0l-3.69862,25.89035l12.98216,0c1.47945,0 2.29315,0.70274 1.47945,2.44109c-14.60956,25.48351 -21.89584,38.24375 -21.89584,38.24375l0,0.00001z" fill="#ef6461" id="svg_6" stroke="#313b45" stroke-width="5"/>
</svg>