<svg viewBox="0 0 60 60" xmlns="http://www.w3.org/2000/svg" xmlns:svg="http://www.w3.org/2000/svg">
  <path d="m43.04315,38.03257l-2.6389,0l-0.93531,-0.9019c3.27358,-3.80804 5.2444,-8.75181 5.2444,-14.12983c0,-11.99198 -9.72052,-21.7125 -21.7125,-21.7125s-21.7125,9.72052 -21.7125,21.7125s9.72052,21.7125 21.7125,21.7125c5.37802,0 10.32179,-1.97083 14.12983,-5.2444l0.9019,0.93531l0,2.6389l16.70192,16.66852l4.97717,-4.97717l-16.66852,-16.70192l0.00001,-0.00001zm-20.04231,0c-8.31756,0 -15.03173,-6.71417 -15.03173,-15.03173s6.71417,-15.03173 15.03173,-15.03173s15.03173,6.71417 15.03173,15.03173s-6.71417,15.03173 -15.03173,15.03173z" fill="#fccb4f" id="svg_2" stroke="#2a3d4f" stroke-linejoin="round" stroke-width="2"/>
  <path d="m30.56834,23.85167c0.04,-0.32 0.07,-0.64 0.07,-0.98c0,-0.34 -0.03,-0.66 -0.07,-0.98l2.11,-1.65c0.19,-0.15 0.24,-0.42 0.12,-0.64l-2,-3.46c-0.09,-0.16 -0.26,-0.25 -0.44,-0.25c-0.06,0 -0.12,0.01 -0.17,0.03l-2.49,1c-0.52,-0.4 -1.08,-0.73 -1.69,-0.98l-0.38,-2.65c-0.03,-0.24 -0.24,-0.42 -0.49,-0.42l-4,0c-0.25,0 -0.46,0.18 -0.49,0.42l-0.38,2.65c-0.61,0.25 -1.17,0.59 -1.69,0.98l-2.49,-1c-0.06,-0.02 -0.12,-0.03 -0.18,-0.03c-0.17,0 -0.34,0.09 -0.43,0.25l-2,3.46c-0.13,0.22 -0.07,0.49 0.12,0.64l2.11,1.65c-0.04,0.32 -0.07,0.65 -0.07,0.98c0,0.33 0.03,0.66 0.07,0.98l-2.11,1.65c-0.19,0.15 -0.24,0.42 -0.12,0.64l2,3.46c0.09,0.16 0.26,0.25 0.44,0.25c0.06,0 0.12,-0.01 0.17,-0.03l2.49,-1c0.52,0.4 1.08,0.73 1.69,0.98l0.38,2.65c0.03,0.24 0.24,0.42 0.49,0.42l4,0c0.25,0 0.46,-0.18 0.49,-0.42l0.38,-2.65c0.61,-0.25 1.17,-0.59 1.69,-0.98l2.49,1c0.06,0.02 0.12,0.03 0.18,0.03c0.17,0 0.34,-0.09 0.43,-0.25l2,-3.46c0.12,-0.22 0.07,-0.49 -0.12,-0.64l-2.11,-1.65zm-1.98,-1.71c0.04,0.31 0.05,0.52 0.05,0.73c0,0.21 -0.02,0.43 -0.05,0.73l-0.14,1.13l0.89,0.7l1.08,0.84l-0.7,1.21l-1.27,-0.51l-1.04,-0.42l-0.9,0.68c-0.43,0.32 -0.84,0.56 -1.25,0.73l-1.06,0.43l-0.16,1.13l-0.2,1.35l-1.4,0l-0.19,-1.35l-0.16,-1.13l-1.06,-0.43c-0.43,-0.18 -0.83,-0.41 -1.23,-0.71l-0.91,-0.7l-1.06,0.43l-1.27,0.51l-0.7,-1.21l1.08,-0.84l0.89,-0.7l-0.14,-1.13c-0.03,-0.31 -0.05,-0.54 -0.05,-0.74s0.02,-0.43 0.05,-0.73l0.14,-1.13l-0.89,-0.7l-1.08,-0.84l0.7,-1.21l1.27,0.51l1.04,0.42l0.9,-0.68c0.43,-0.32 0.84,-0.56 1.25,-0.73l1.06,-0.43l0.16,-1.13l0.2,-1.35l1.39,0l0.19,1.35l0.16,1.13l1.06,0.43c0.43,0.18 0.83,0.41 1.23,0.71l0.91,0.7l1.06,-0.43l1.27,-0.51l0.7,1.21l-1.07,0.85l-0.89,0.7l0.14,1.13zm-5.45,-3.27c-2.21,0 -4,1.79 -4,4s1.79,4 4,4s4,-1.79 4,-4s-1.79,-4 -4,-4zm0,6c-1.1,0 -2,-0.9 -2,-2s0.9,-2 2,-2s2,0.9 2,2s-0.9,2 -2,2z" fill="#eaceb2" id="svg_4"/>
</svg>