<svg viewBox="0 0 171 171" xmlns="http://www.w3.org/2000/svg" xmlns:svg="http://www.w3.org/2000/svg">
  <rect fill="#dc6068" height="171.2" id="svg_8" rx="10" ry="10" stroke="#000000" stroke-dasharray="null" stroke-linecap="null" stroke-linejoin="null" stroke-width="0" width="171.2" x="0" y="0"/>
  <path d="m76.19274,114.91247c-2.21717,-1.76823 -1.92628,-2.83898 3.46432,-12.75102c2.72199,-5.00507 4.94905,-9.24557 4.94905,-9.42334c0,-0.17775 -7.51635,-0.3232 -16.70305,-0.3232l-16.70305,0l0,-9.37398l0,-9.37398l16.83543,0c12.98107,0 16.69051,-0.28239 16.20253,-1.23342c-0.34809,-0.67838 -2.7226,-5.17999 -5.27668,-10.00357c-4.81448,-9.09256 -4.81297,-11.53096 0.00744,-12.28678c2.39894,-0.37613 39.74754,28.52368 41.03128,31.74944c-12.44049,11.51774 -27.3111,23.57387 -41.00934,34.20395c-0.72228,0 -1.98133,-0.53284 -2.79792,-1.18409l0,0z" fill="#ffffff" id="svg_13" stroke="#000000" stroke-dasharray="null" stroke-linecap="null" stroke-linejoin="null" stroke-width="0" transform="rotate(90 85.6 83.118)"/>
  <g id="svg_16">
   <rect fill="#ffffff" height="23.9589" id="svg_14" rx="5" ry="5" stroke="#000000" stroke-dasharray="null" stroke-linecap="null" stroke-linejoin="null" stroke-width="0" width="132.5" x="19.25" y="128.00001"/>
   <rect fill="#dc6068" height="4.81657" id="svg_15" stroke="#000000" stroke-dasharray="null" stroke-linecap="null" stroke-linejoin="null" stroke-width="0" width="11.61644" x="127.60959" y="137.57116"/>
  </g>
</svg>