<svg viewBox="0 0 53 53" xmlns="http://www.w3.org/2000/svg" xmlns:svg="http://www.w3.org/2000/svg">
  <path d="m44.55442,25.3547l-3.12451,0l0,-13.78461l-13.78461,0l0,-3.12451c0,-3.00964 -2.15959,-5.74359 -5.14625,-6.04225c-3.44615,-0.34462 -6.34092,2.34338 -6.34092,5.72061l0,3.44615l-13.76163,0l0,13.32512l3.19343,0c3.00964,0 5.74359,2.02174 6.31795,4.96246c0.75815,3.95159 -2.25149,7.44369 -6.0882,7.44369l-3.44615,0l0,13.32512l13.32512,0l0,-3.21641c0,-3.00964 2.02174,-5.74359 4.96246,-6.31795c3.95159,-0.75815 7.44369,2.25149 7.44369,6.0882l0,3.44615l13.32512,0l0,-13.78461l3.44615,0c3.37723,0 6.06523,-2.89477 5.72061,-6.34092c-0.29867,-2.98667 -3.05559,-5.14625 -6.04225,-5.14625z" fill="#ec763e" id="svg_4" stroke="#154360" stroke-width="3"/>
</svg>