<svg viewBox="0 0 90 70" xmlns="http://www.w3.org/2000/svg" xmlns:svg="http://www.w3.org/2000/svg">
  <path d="m2,68.7c0,0 42.05,-66.7 42.05,-66.7c0,0 26.1,0 26.1,0c0,0 0,9.28 0,9.28c0,0 -36.25,57.42 -36.25,57.42" fill="#fbbc04" id="path58"/>
  <path d="m70.15,68.7c0,0 -26.1,0 -26.1,0c0,0 0,-66.7 0,-66.7c0,0 26.1,0 26.1,0c0,0 0,66.7 0,66.7z" fill="#1a73e8" id="path64"/>
  <path d="m89,49.85c0,10.411 -8.439,18.85 -18.85,18.85c0,0 0,-37.7 0,-37.7c10.411,0 18.85,8.439 18.85,18.85z" fill="#34a853" id="path70"/>
  <path d="m70.15,68.7c-10.411,0 -18.85,-8.439 -18.85,-18.85c0,-10.411 8.439,-18.85 18.85,-18.85c0,0 0,37.7 0,37.7z" fill="#0d652d" id="path76"/>
  <path d="m84.65,16.5c0,8.0069 -6.4902,14.5 -14.5,14.5c0,0 0,-29 0,-29c8.0098,0 14.5,6.4931 14.5,14.5z" fill="#1a73e8" id="path82"/>
  <path d="m70.15,31c-8.0098,0 -14.5,-6.4931 -14.5,-14.5c0,-8.0069 6.4902,-14.5 14.5,-14.5c0,0 0,29 0,29z" fill="#174ea6" id="path88"/>
  <path d="m3.45,15.05c0,-7.2065 5.8435,-13.05 13.05,-13.05c7.2065,0 13.05,5.8435 13.05,13.05c0,7.2065 -5.8435,13.05 -13.05,13.05c-7.2065,0 -13.05,-5.8435 -13.05,-13.05z" fill="#ea4335" id="path94"/>
</svg>