<svg viewBox="0 0 223 172" xmlns="http://www.w3.org/2000/svg" xmlns:svg="http://www.w3.org/2000/svg">
  <path d="m52.50001,104.52959c0,-1.64622 4.53919,-3.02959 9.94083,-3.02959l103.11832,0c5.40164,0 9.94083,1.38337 9.94083,3.02959l41,57.94082c0,1.64622 -4.53919,3.02959 -9.94083,3.02959l-190.11832,0c-5.40164,0 -9.94083,-1.38337 -9.94083,-3.02959l46,-57.94082z" fill="#d4c8bc" id="svg_1" stroke="#263a4c" stroke-dasharray="null" stroke-linecap="null" stroke-linejoin="null" stroke-width="8"/>
  <path d="m125.988,38.379c0,8.001 -6.487,14.488 -14.488,14.488c-8.001,0 -14.488,-6.487 -14.488,-14.488c0,-8.002 6.487,-14.488 14.488,-14.488c8.001,0 14.488,6.486 14.488,14.488zm-14.488,-32.379c-22.428,0 -40.567,18.139 -40.567,40.567c0,30.426 40.567,75.339 40.567,75.339c0,0 40.567,-44.913 40.567,-75.339c0,-22.428 -18.139,-40.567 -40.567,-40.567z" fill="rgb(187, 54, 44)" fill-rule="evenodd" id="svg_3" stroke="#263a4c" stroke-width="8"/>
</svg>