<svg xmlns="http://www.w3.org/2000/svg" xmlns:svg="http://www.w3.org/2000/svg" viewBox="0 0 120 34"><g><ellipse cx="15.65611" cy="18.1078" fill="#286DAE" id="svg_8" rx="15.545" ry="15.545" stroke="rgb(0, 0, 0)" stroke-width="0px"></ellipse><path d="m44.39158,27.94572q-4.6725,0 -7.2891,-2.6789q-2.6166,-2.6789 -2.6166,-7.2268q0,-3.9872 2.64775,-6.5415q2.64775,-2.5543 6.82185,-2.5543q4.0495,0 6.4792,2.33625q2.4297,2.33625 2.4297,5.76275q0,1.3706 -0.71645,2.0559q-0.71645,0.6853 -1.83785,0.6853l-10.8402,0q-0.623,0 -0.4361,0.6853q0.4984,1.7444 2.02475,2.71005q1.52635,0.96565 3.45765,0.96565q1.4329,0 2.77235,-0.3738q1.33945,-0.3738 2.33625,-1.1214q0.3115,-0.2492 0.8099,-0.2492q0.6853,0 1.246,0.59185q0.5607,0.59185 0.5607,1.40175q0,0.3738 -0.1246,0.7476q-0.1246,0.3738 -0.5607,0.7476q-1.6198,1.1837 -3.45765,1.6198q-1.83785,0.4361 -3.70685,0.4361zm3.6134,-11.4009q0.3738,0 0.3738,-0.3738q0,-1.4329 -1.27715,-2.492q-1.27715,-1.0591 -3.14615,-1.0591q-1.6198,0 -3.08385,0.8722q-1.46405,0.8722 -1.77555,2.3051q0,0 0,0.0623q-0.0623,0.2492 -0.03115,0.4361q0.03115,0.1869 0.52955,0.1869l8.4105,0.0623zm15.07397,11.4009q-1.8067,0 -3.6757,-0.46725q-1.869,-0.46725 -3.3019,-1.46405q-0.7476,-0.6853 -0.7476,-1.4952q0,-0.8099 0.65415,-1.4329q0.65415,-0.623 1.46405,-0.623q0.4361,0 0.8722,0.2492q1.1214,0.6853 2.58545,1.09025q1.46405,0.40495 2.77235,0.40495q1.246,0 2.14935,-0.4361q0.90335,-0.4361 0.90335,-1.4329q0,-0.9968 -0.8722,-1.4952q-0.8722,-0.4984 -2.9904,-0.7476q-0.8722,-0.1246 -2.08705,-0.3115q-1.21485,-0.1869 -2.39855,-0.6853q-1.1837,-0.4984 -1.9936,-1.4952q-0.8099,-0.9968 -0.8099,-2.6789q0,-2.7412 2.02475,-4.361q2.02475,-1.6198 5.45125,-1.6198q1.9936,0 3.76915,0.4984q1.77555,0.4984 2.64775,1.246q0.6853,0.5607 0.6853,1.3083q0,0.8099 -0.5607,1.4329q-0.5607,0.623 -1.3706,0.623q-0.4361,0 -0.8099,-0.1869q-0.9968,-0.5607 -2.21165,-0.84105q-1.21485,-0.28035 -2.33625,-0.28035q-1.3083,0 -2.21165,0.40495q-0.90335,0.40495 -0.90335,1.27715q0,0.623 0.52955,1.09025q0.52955,0.46725 2.77235,0.77875q1.0591,0.1246 2.39855,0.3738q1.33945,0.2492 2.58545,0.77875q1.246,0.52955 2.0559,1.65095q0.8099,1.1214 0.8099,3.0527q0,1.9936 -1.1214,3.27075q-1.1214,1.27715 -2.89695,1.90015q-1.77555,0.623 -3.83145,0.623zm18.06734,0q-1.8067,0 -3.6757,-0.46725q-1.869,-0.46725 -3.3019,-1.46405q-0.7476,-0.6853 -0.7476,-1.4952q0,-0.8099 0.65415,-1.4329q0.65415,-0.623 1.46405,-0.623q0.4361,0 0.8722,0.2492q1.1214,0.6853 2.58545,1.09025q1.46405,0.40495 2.77235,0.40495q1.246,0 2.14935,-0.4361q0.90335,-0.4361 0.90335,-1.4329q0,-0.9968 -0.8722,-1.4952q-0.8722,-0.4984 -2.9904,-0.7476q-0.8722,-0.1246 -2.08705,-0.3115q-1.21485,-0.1869 -2.39855,-0.6853q-1.1837,-0.4984 -1.9936,-1.4952q-0.8099,-0.9968 -0.8099,-2.6789q0,-2.7412 2.02475,-4.361q2.02475,-1.6198 5.45125,-1.6198q1.9936,0 3.76915,0.4984q1.77555,0.4984 2.64775,1.246q0.6853,0.5607 0.6853,1.3083q0,0.8099 -0.5607,1.4329q-0.5607,0.623 -1.3706,0.623q-0.4361,0 -0.8099,-0.1869q-0.9968,-0.5607 -2.21165,-0.84105q-1.21485,-0.28035 -2.33625,-0.28035q-1.3083,0 -2.21165,0.40495q-0.90335,0.40495 -0.90335,1.27715q0,0.623 0.52955,1.09025q0.52955,0.46725 2.77235,0.77875q1.0591,0.1246 2.39855,0.3738q1.33945,0.2492 2.58545,0.77875q1.246,0.52955 2.0559,1.65095q0.8099,1.1214 0.8099,3.0527q0,1.9936 -1.1214,3.27075q-1.1214,1.27715 -2.89695,1.90015q-1.77555,0.623 -3.83145,0.623zm13.76864,0q-0.8099,0 -1.46405,-0.4984q-0.65415,-0.4984 -0.65415,-1.4329l0,-14.952q0,-1.0591 0.65415,-1.58865q0.65415,-0.52955 1.46405,-0.52955q0.8099,0 1.46405,0.52955q0.65415,0.52955 0.65415,1.58865l0,14.952q0,0.9345 -0.65415,1.4329q-0.65415,0.4984 -1.46405,0.4984zm0.0623,-22.428q-1.1837,0 -2.02475,-0.77875q-0.84105,-0.77875 -0.84105,-1.90015q0,-1.0591 0.84105,-1.83785q0.84105,-0.77875 2.02475,-0.77875q1.1214,0 1.9313,0.77875q0.8099,0.77875 0.8099,1.83785q0,1.1214 -0.8099,1.90015q-0.8099,0.77875 -1.9313,0.77875zm15.13835,22.428q-2.6789,0 -4.7971,-1.246q-2.1182,-1.246 -3.3019,-3.45765q-1.1837,-2.21165 -1.1837,-4.95285q0,-2.6789 1.1837,-4.7971q1.1837,-2.1182 3.3019,-3.33305q2.1182,-1.21485 4.7971,-1.21485q1.7444,0 3.115,0.59185q1.3706,0.59185 2.3674,1.52635q0.1246,-0.8722 0.7476,-1.33945q0.623,-0.46725 1.3706,-0.46725q0.8099,0 1.46405,0.52955q0.65415,0.52955 0.65415,1.58865l0,14.6405q0,0.9345 -0.65415,1.4329q-0.65415,0.4984 -1.46405,0.4984q-0.8099,0 -1.46405,-0.4984q-0.65415,-0.4984 -0.65415,-1.4329l0,-0.2492q-0.9968,0.9968 -2.3674,1.58865q-1.3706,0.59185 -3.115,0.59185zm0.3738,-3.8626q2.3674,0 3.738,-1.58865q1.3706,-1.58865 1.3706,-4.20525q0,-2.492 -1.3706,-3.9872q-1.3706,-1.4952 -3.738,-1.4952q-2.4297,0 -3.9249,1.4952q-1.4952,1.4952 -1.4952,3.9872q0,2.6166 1.4952,4.20525q1.4952,1.58865 3.9249,1.58865z" fill="rgb(51, 51, 51)" id="svg_1"></path><g id="svg_9"><path d="m16.10898,12.79859l-0.67,4.891" fill="rgb(216, 216, 216)" id="svg_12" stroke="rgb(255, 255, 255)" stroke-linecap="round" stroke-width="4px"></path><path d="m10.32209,10.81581l-2.059,15.048" fill="rgb(216, 216, 216)" id="svg_10" stroke="rgb(255, 255, 255)" stroke-linecap="round" stroke-width="4px"></path><path d="m22.72209,10.81481l-2.059,15.048" fill="rgb(216, 216, 216)" id="svg_11" stroke="rgb(255, 255, 255)" stroke-linecap="round" stroke-width="4px"></path></g></g></svg>