<svg viewBox="0 0 202 223" xmlns="http://www.w3.org/2000/svg" xmlns:svg="http://www.w3.org/2000/svg">
  <rect fill="#3d9ae2" height="66.33333" id="svg_6" width="18.95238" x="19.95238" y="131.27307"/>
  <path d="m171.57143,178.65402l-50.69762,0c-5.11714,0 -10.13952,-0.85286 -14.97238,-2.46381l-22.55333,-7.48619l5.97,-18.00476l22.55333,7.48619c2.93762,0.94762 5.97,1.42143 9.00238,1.42143l12.79286,0c0,-3.50619 -2.17952,-6.63333 -5.40143,-7.86524l-55.15143,-20.46857l-15.25667,0l0,51.92952l66.04905,18.38381l56.19381,-17.53095c-1.51619,-3.2219 -4.83286,-5.40143 -8.52857,-5.40143z" fill="#3d9ae2" id="svg_8"/>
  <path d="m171.57143,159.70164l-18.95238,0c0,-11.37143 -7.10714,-21.60571 -17.72048,-25.58571l-58.37333,-21.79524l-75.52524,0l0,104.2381l56.85714,0l0,-13.64571l66.33333,18.38381l75.80952,-23.69048l0,-9.47619c0,-15.73048 -12.6981,-28.42857 -28.42857,-28.42857l0.00001,-0.00001zm-132.66667,37.90476l-18.95238,0l0,-66.33333l18.95238,0l0,66.33333zm85.00143,3.88524l-66.04905,-18.28905l0,-51.92952l15.25667,0l55.15143,20.56333c3.2219,1.2319 5.40143,4.35905 5.40143,7.86524l-12.79286,0c-3.03238,0 -6.06476,-0.47381 -9.00238,-1.42143l-22.55333,-7.48619l-5.97,18.00476l22.55333,7.48619c4.83286,1.61095 9.85524,2.46381 14.97238,2.46381l50.69762,0c3.69571,0 7.01238,2.17952 8.52857,5.30667l-56.19381,17.43619z" fill="#0f3654" id="svg_11"/>
  <ellipse cx="142.5" cy="58.5" fill="#ffd422" id="svg_13" rx="54.7619" ry="54.7619" stroke-dasharray="null" stroke-linecap="null" stroke-linejoin="null" stroke-width="null"/>
  <path d="m142.5,1c-31.74,0 -57.5,25.76 -57.5,57.5s25.76,57.5 57.5,57.5s57.5,-25.76 57.5,-57.5s-25.76,-57.5 -57.5,-57.5zm0,103.5c-25.3575,0 -46,-20.6425 -46,-46s20.6425,-46 46,-46s46,20.6425 46,46s-20.6425,46 -46,46zm1.7825,-50.945c-10.1775,-2.5875 -13.455,-5.405 -13.455,-9.6025c0,-4.83 4.5425,-8.2225 12.075,-8.2225c7.935,0 10.925,3.795 11.155,9.43l9.8325,0c-0.2875,-7.705 -5.0025,-14.7775 -14.3175,-17.0775l0,-9.8325l-13.3975,0l0,9.7175c-8.6825,1.84 -15.64,7.475 -15.64,16.1575c0,10.2925 8.5675,15.4675 21.045,18.4575c11.2125,2.645 13.455,6.6125 13.455,10.7525c0,3.0475 -2.2425,7.9925 -12.075,7.9925c-9.2,0 -12.8225,-4.14 -13.34,-9.43l-9.89,0c0.575,9.775 7.82,15.295 16.445,17.0775l0,9.775l13.455,0l0,-9.6025c8.74,-1.6675 15.64,-6.67 15.6975,-15.9275c-0.0575,-12.65 -10.925,-17.02 -21.045,-19.665z" fill="#191919" id="svg_2"/>
</svg>