<svg viewBox="0 0 94 96" xmlns="http://www.w3.org/2000/svg" xmlns:svg="http://www.w3.org/2000/svg">
  <path d="m45.55545,90.78269l35.84654,-0.06993l5.16397,-7.74595l1.72132,-10.50007l0,-10.84433c1.29509,-15.24599 -12.34844,-31.32806 -24.91,-33.14775l-17.82183,62.30803z" fill="#eb675e" id="svg_4" stroke="#000000" stroke-dasharray="null" stroke-linecap="null" stroke-linejoin="null" stroke-width="0"/>
  <path d="m46.94972,90.81927c-18.38372,0.20656 -33.73563,0.61968 -34.05637,0.40989c-0.32073,-0.20979 -7.35865,-15.28212 -7.74595,-14.97551c-0.3873,0.30661 -0.6455,-15.79851 -1.03279,-15.4919c-0.3873,0.30661 5.03487,-12.70013 4.64757,-12.39352c-0.3873,0.30661 7.61685,-10.11815 7.22955,-9.81154c-0.3873,0.30661 8.13325,-6.50337 7.74595,-6.19676c-0.3873,0.30661 12.78082,-5.47058 12.39352,-5.16397c-0.3873,0.30661 13.29722,-1.8558 12.90992,-1.54919c-0.3873,0.30661 11.23163,2.27537 10.84433,2.58198c-0.3873,0.30661 3.45125,-0.89186 5.3361,2.23772" fill="#fccb4f" id="svg_1" stroke="#000000" stroke-width="0"/>
  <path d="m86.3461,42.60302l-5.78843,8.70618a37.64832,37.64832 0 0 1 -1.03533,35.67179l-65.22572,0a37.64832,37.64832 0 0 1 49.46048,-52.47235l8.70618,-5.78843a47.0604,47.0604 0 0 0 -66.26105,62.96682a9.41208,9.41208 0 0 0 8.09439,4.70604l65.17866,0a9.41208,9.41208 0 0 0 8.18851,-4.70604a47.0604,47.0604 0 0 0 -1.27063,-49.13106l-0.04706,0.04706z" fill="#21262b" id="svg_2"/>
  <path d="m40.27396,74.79234a9.41208,9.41208 0 0 0 13.31809,0l26.63619,-39.95428l-39.95428,26.63619a9.41208,9.41208 0 0 0 0,13.31809z" fill="black" id="svg_3"/>
  <path d="m17.93585,71.25366l-3.81965,0l3.81965,-26.73753l-13.36877,0c-3.36129,0 -1.26048,-2.86474 -1.18409,-2.97933c4.92735,-8.7088 12.33746,-21.6956 22.23035,-39.0368l3.81965,0l-3.81965,26.73753l13.40696,0c1.52786,0 2.36818,0.72573 1.52786,2.52097c-15.08761,26.31737 -22.61231,39.49516 -22.61231,39.49516z" fill="#32895c" id="svg_8" stroke="#ffffff" stroke-linecap="round" stroke-linejoin="round" stroke-width="5"/>
</svg>