<svg viewBox="0 0 178 178" xmlns="http://www.w3.org/2000/svg" xmlns:svg="http://www.w3.org/2000/svg">
  <ellipse cx="89" cy="89" fill="#ffd766" id="svg_2" rx="80" ry="80" stroke="#043d2a" stroke-dasharray="null" stroke-linecap="null" stroke-linejoin="null" stroke-width="16"/>
  <path d="m113.25,64.75l-19.4,0l0,9.7l19.4,0c8.0025,0 14.55,6.5475 14.55,14.55s-6.5475,14.55 -14.55,14.55l-19.4,0l0,9.7l19.4,0c13.386,0 24.25,-10.864 24.25,-24.25s-10.864,-24.25 -24.25,-24.25zm-29.1,38.8l-19.4,0c-8.0025,0 -14.55,-6.5475 -14.55,-14.55s6.5475,-14.55 14.55,-14.55l19.4,0l0,-9.7l-19.4,0c-13.386,0 -24.25,10.864 -24.25,24.25s10.864,24.25 24.25,24.25l19.4,0l0,-9.7zm-14.55,-19.4l38.8,0l0,9.7l-38.8,0l0,-9.7z" fill="#043d2a" id="svg_3" stroke-width="0" transform="rotate(-180 89 89)"/>
</svg>