<svg viewBox="0 0 134 127" xmlns="http://www.w3.org/2000/svg" xmlns:svg="http://www.w3.org/2000/svg">
   <path d="m84.90122,102.61516c-13.98593,0 -26.27807,-7.45271 -33.05326,-18.58338l14.2763,-14.2763l15.9217,13.50199l22.21295,-22.16456l0,7.64629l9.67885,0l0,-24.19711l-24.19711,0l0,9.67885l7.64629,0l-15.87331,15.87331l-15.9701,-13.4536l-17.85747,17.90586c-0.96788,-3.3876 -1.50022,-6.96877 -1.50022,-10.64673c0,-21.34185 17.37353,-38.71538 38.71538,-38.71538s38.71538,17.37353 38.71538,38.71538s-17.37353,38.71538 -38.71538,38.71538zm36.29567,2.41971c-2.66168,0 -4.83942,-2.17774 -4.83942,-4.83942s2.17774,-4.83942 4.83942,-4.83942s4.83942,2.17774 4.83942,4.83942s-2.17774,4.83942 -4.83942,4.83942z" fill="#e7e4e1" id="svg_2" opacity="0.3"/>
   <path d="m84.90122,15.50554c-26.71361,0 -48.39423,21.68061 -48.39423,48.39423s21.68061,48.39423 48.39423,48.39423l38.71538,0c5.32337,0 9.67885,-4.35548 9.67885,-9.67885l0,-38.71538c0,-26.71361 -21.68061,-48.39423 -48.39423,-48.39423zm0,87.10961c-13.98593,0 -26.27807,-7.45271 -33.05326,-18.58338l14.2763,-14.2763l15.9217,13.50199l22.21295,-22.16456l0,7.64629l9.67885,0l0,-24.19711l-24.19711,0l0,9.67885l7.64629,0l-15.87331,15.87331l-15.9701,-13.4536l-17.85747,17.90586c-0.96788,-3.3876 -1.50022,-6.96877 -1.50022,-10.64673c0,-21.34185 17.37353,-38.71538 38.71538,-38.71538s38.71538,17.37353 38.71538,38.71538s-17.37353,38.71538 -38.71538,38.71538zm36.29567,2.41971c-2.66168,0 -4.83942,-2.17774 -4.83942,-4.83942s2.17774,-4.83942 4.83942,-4.83942s4.83942,2.17774 4.83942,4.83942s-2.17774,4.83942 -4.83942,4.83942z" fill="#0d2954" id="svg_3"/>
   <path d="m30.05499,15.5361l14.69547,6.67976l-14.69547,6.67975l-6.67976,14.69547l-6.67975,-14.69547l-14.69547,-6.67975l14.69547,-6.67976l6.67975,-14.69547l6.67976,14.69547z" fill="#7bbd91" id="svg_5"/>
   <path d="m30.05499,97.10605l14.69547,6.67976l-14.69547,6.67975l-6.67976,14.69547l-6.67975,-14.69547l-14.69547,-6.67975l14.69547,-6.67976l6.67975,-14.69547l6.67976,14.69547z" fill="#ffd766" id="svg_6"/>
</svg>