<svg viewBox="0 0 77 63" xmlns="http://www.w3.org/2000/svg" xmlns:svg="http://www.w3.org/2000/svg">
  <path d="m55.8,0.4l-49.06667,0c-3.37333,0 -6.13333,2.76 -6.13333,6.13333l0,55.2l12.26667,-12.26667l42.93333,0c3.37333,0 6.13333,-2.76 6.13333,-6.13333l0,-36.8c0,-3.37333 -2.76,-6.13333 -6.13333,-6.13333zm0,42.93333l-45.47867,0l-3.588,3.588l0,-40.388l49.06667,0l0,36.8z" fill="#dba206" id="svg_5"/>
  <polygon fill="#ffbb00" id="svg_6" points="31.26667022705078,40.266665652394295 36.081336975097656,29.74799843132496 46.60000228881836,24.933333590626717 36.081336975097656,20.118668749928474 31.26667022705078,9.600000575184822 26.452003479003906,20.118668749928474 15.933331489562988,24.933333590626717 26.452003479003906,29.74799843132496 "/>
  <ellipse cx="58.67329" cy="45.72699" fill="#ffffff" id="svg_4" rx="17" ry="17" stroke="#ffffff" stroke-dasharray="null" stroke-linecap="null" stroke-linejoin="null" stroke-width="0"/>
  <path d="m68.68712,47.04741c0.05389,-0.43115 0.09432,-0.86231 0.09432,-1.32041c0,-0.4581 -0.04042,-0.88926 -0.09432,-1.32041l2.84292,-2.22314c0.256,-0.2021 0.32337,-0.56589 0.16168,-0.86231l-2.69471,-4.66186c-0.12126,-0.21558 -0.35031,-0.33684 -0.59284,-0.33684c-0.08084,0 -0.16168,0.01347 -0.22905,0.04042l-3.35492,1.34736c-0.70063,-0.53894 -1.45515,-0.98357 -2.27703,-1.32041l-0.512,-3.5705c-0.04042,-0.32337 -0.32337,-0.56589 -0.66021,-0.56589l-5.38943,0c-0.33684,0 -0.61978,0.24252 -0.66021,0.56589l-0.512,3.5705c-0.82189,0.33684 -1.57641,0.79494 -2.27703,1.32041l-3.35492,-1.34736c-0.08084,-0.02695 -0.16168,-0.04042 -0.24252,-0.04042c-0.22905,0 -0.4581,0.12126 -0.57936,0.33684l-2.69471,4.66186c-0.17516,0.29642 -0.09432,0.66021 0.16168,0.86231l2.84292,2.22314c-0.05389,0.43115 -0.09432,0.87578 -0.09432,1.32041c0,0.44463 0.04042,0.88926 0.09432,1.32041l-2.84292,2.22314c-0.256,0.2021 -0.32337,0.56589 -0.16168,0.86231l2.69471,4.66186c0.12126,0.21558 0.35031,0.33684 0.59284,0.33684c0.08084,0 0.16168,-0.01347 0.22905,-0.04042l3.35492,-1.34736c0.70063,0.53894 1.45515,0.98357 2.27703,1.32041l0.512,3.5705c0.04042,0.32337 0.32337,0.56589 0.66021,0.56589l5.38943,0c0.33684,0 0.61978,-0.24252 0.66021,-0.56589l0.512,-3.5705c0.82189,-0.33684 1.57641,-0.79494 2.27703,-1.32041l3.35492,1.34736c0.08084,0.02695 0.16168,0.04042 0.24252,0.04042c0.22905,0 0.4581,-0.12126 0.57936,-0.33684l2.69471,-4.66186c0.16168,-0.29642 0.09432,-0.66021 -0.16168,-0.86231l-2.84292,-2.22314zm-2.66777,-2.30398c0.05389,0.41768 0.06737,0.70063 0.06737,0.98357c0,0.28295 -0.02695,0.57936 -0.06737,0.98357l-0.18863,1.52251l1.19915,0.94315l1.45515,1.13178l-0.94315,1.6303l-1.71114,-0.68715l-1.40125,-0.56589l-1.21262,0.9162c-0.57936,0.43115 -1.13178,0.75452 -1.6842,0.98357l-1.4282,0.57936l-0.21558,1.52251l-0.26947,1.81893l-1.8863,0l-0.256,-1.81893l-0.21558,-1.52251l-1.4282,-0.57936c-0.57936,-0.24252 -1.11831,-0.55242 -1.65725,-0.95662l-1.2261,-0.94315l-1.4282,0.57936l-1.71114,0.68715l-0.94315,-1.6303l1.45515,-1.13178l1.19915,-0.94315l-0.18863,-1.52251c-0.04042,-0.41768 -0.06737,-0.72757 -0.06737,-0.99704s0.02695,-0.57936 0.06737,-0.98357l0.18863,-1.52251l-1.19915,-0.94315l-1.45515,-1.13178l0.94315,-1.6303l1.71114,0.68715l1.40125,0.56589l1.21262,-0.9162c0.57936,-0.43115 1.13178,-0.75452 1.6842,-0.98357l1.4282,-0.57936l0.21558,-1.52251l0.26947,-1.81893l1.87283,0l0.256,1.81893l0.21558,1.52251l1.4282,0.57936c0.57936,0.24252 1.11831,0.55242 1.65725,0.95662l1.2261,0.94315l1.4282,-0.57936l1.71114,-0.68715l0.94315,1.6303l-1.44167,1.14525l-1.19915,0.94315l0.18863,1.52251zm-7.3431,-4.40586c-2.97766,0 -5.38943,2.41177 -5.38943,5.38943s2.41177,5.38943 5.38943,5.38943s5.38943,-2.41177 5.38943,-5.38943s-2.41177,-5.38943 -5.38943,-5.38943zm0,8.08414c-1.48209,0 -2.69471,-1.21262 -2.69471,-2.69471s1.21262,-2.69471 2.69471,-2.69471s2.69471,1.21262 2.69471,2.69471s-1.21262,2.69471 -2.69471,2.69471z" fill="#8c1c1c" id="svg_8" stroke="#132849" stroke-width="0"/>
</svg>