<svg xmlns="http://www.w3.org/2000/svg" x="0px" y="0px" width="24" height="24" viewBox="0 0 172 172" style=" fill:#000000;"><g fill="none" fill-rule="nonzero" stroke="none" stroke-width="1" stroke-linecap="butt" stroke-linejoin="miter" stroke-miterlimit="10" stroke-dasharray="" stroke-dashoffset="0" font-family="none" font-weight="none" font-size="none" text-anchor="none" style="mix-blend-mode: normal"><path d="M0,172v-172h172v172z" fill="none"></path><path d="M25.8,172c-14.24895,0 -25.8,-11.55105 -25.8,-25.8v-120.4c0,-14.24895 11.55105,-25.8 25.8,-25.8h120.4c14.24895,0 25.8,11.55105 25.8,25.8v120.4c0,14.24895 -11.55105,25.8 -25.8,25.8z" fill="#021985"></path><g fill="#ffffff"><path d="M111.55275,68.79997h-13.7772v-11.46667c0,-5.9168 0.4816,-9.64347 8.9612,-9.64347h4.97653c3.1648,0 5.73333,-2.56853 5.73333,-5.73333v-7.1896c0,-2.99853 -2.29907,-5.56133 -5.29187,-5.762c-3.46293,-0.23507 -6.9316,-0.344 -10.406,-0.33827c-15.55453,0 -26.90653,9.50013 -26.90653,26.94093v13.1924h-11.46667c-3.1648,0 -5.73333,2.56853 -5.73333,5.73333v11.46667c0,3.1648 2.56853,5.73333 5.73333,5.73333l11.46667,-0.00573v45.8724c0,3.1648 2.56853,5.73333 5.73333,5.73333h11.46667c3.1648,0 5.73333,-2.56853 5.73333,-5.73333v-45.88387l12.46427,-0.00573c2.91253,0 5.36067,-2.1844 5.6932,-5.07973l1.31293,-11.44373c0.3956,-3.39987 -2.26467,-6.38693 -5.6932,-6.38693z"></path></g></g></svg>