<svg>
	<symbol viewBox="0 0 90 16" id="star-outline" xmlns="http://www.w3.org/2000/svg" xmlns:svg="http://www.w3.org/2000/svg">
		<polygon fill-opacity="0" points="9.049997329711914,0.8402024805545807 11.376357078552246,5.553919285535812 16.5782527923584,6.309801071882248 12.814123153686523,9.97892090678215 13.702718734741211,15.159797638654709 9.049997329711914,12.713716477155685 4.397283554077148,15.159797638654709 5.285872459411621,9.97892090678215 1.5217468738555908,6.309801071882248 6.7236433029174805,5.553919285535812 9.049997329711914,0.8402024805545807 11.376357078552246,5.553919285535812" stroke-linejoin="round"/>
		<polygon fill-opacity="0" points="26.999996185302734,0.8402024805545807 29.326356887817383,5.553920775651932 34.528255462646484,6.3098030388355255 30.76412010192871,9.978920012712479 31.652713775634766,15.159797698259354 26.999996185302734,12.713718444108963 22.347278594970703,15.159797698259354 23.235870361328125,9.978920012712479 19.471744537353516,6.3098030388355255 24.673643112182617,5.553920775651932 26.999996185302734,0.8402024805545807 29.326356887817383,5.553920775651932" stroke-linejoin="round"/>
		<polygon fill-opacity="0" points="44.89976119995117,0.8402024805545807 47.22611618041992,5.553920775651932 52.428016662597656,6.3098030388355255 48.66387939453125,9.978920012712479 49.5524787902832,15.159797698259354 44.89976119995117,12.713718444108963 40.24704360961914,15.159797698259354 41.1356315612793,9.978920012712479 37.37150955200195,6.3098030388355255 42.57340621948242,5.553920775651932 44.89976119995117,0.8402024805545807 47.22611618041992,5.553920775651932" stroke-linejoin="round"/>
		<polygon fill-opacity="0" points="62.455318450927734,0.8402024805545807 64.78166961669922,5.553920775651932 69.98357391357422,6.3098030388355255 66.21942901611328,9.978920012712479 67.10803985595703,15.159797698259354 62.455318450927734,12.713718444108963 57.8026008605957,15.159797698259354 58.69118881225586,9.978920012712479 54.927066802978516,6.3098030388355255 60.128963470458984,5.553920775651932 62.455318450927734,0.8402024805545807 64.78166961669922,5.553920775651932" stroke-linejoin="round"/>
		<polygon fill-opacity="0" points="81,0.8402024805545807 83.32634735107422,5.553920716047287 88.52825927734375,6.309802979230881 84.76410675048828,9.978919953107834 85.6527099609375,15.159797638654709 81,12.713718384504318 76.34727478027344,15.159797638654709 77.23587036132812,9.978919953107834 73.47174072265625,6.309802979230881 78.67364501953125,5.553920716047287 81,0.8402024805545807 83.32634735107422,5.553920716047287" stroke-linejoin="round"/>
	</symbol>
	<symbol viewBox="0 0 90 16" id="star-solid" xmlns="http://www.w3.org/2000/svg" xmlns:svg="http://www.w3.org/2000/svg">
		<polygon points="9.049997329711914,0.8402024805545807 11.376357078552246,5.553919285535812 16.5782527923584,6.309801071882248 12.814123153686523,9.97892090678215 13.702718734741211,15.159797638654709 9.049997329711914,12.713716477155685 4.397283554077148,15.159797638654709 5.285872459411621,9.97892090678215 1.5217468738555908,6.309801071882248 6.7236433029174805,5.553919285535812 9.049997329711914,0.8402024805545807 11.376357078552246,5.553919285535812" stroke-linejoin="round" stroke-opacity="0" stroke-width="0"/>
		<polygon points="26.999996185302734,0.8402024805545807 29.326356887817383,5.553920775651932 34.528255462646484,6.3098030388355255 30.76412010192871,9.978920012712479 31.652713775634766,15.159797698259354 26.999996185302734,12.713718444108963 22.347278594970703,15.159797698259354 23.235870361328125,9.978920012712479 19.471744537353516,6.3098030388355255 24.673643112182617,5.553920775651932 26.999996185302734,0.8402024805545807 29.326356887817383,5.553920775651932" stroke-linejoin="round" stroke-opacity="0" stroke-width="0"/>
		<polygon points="44.89976119995117,0.8402024805545807 47.22611618041992,5.553920775651932 52.428016662597656,6.3098030388355255 48.66387939453125,9.978920012712479 49.5524787902832,15.159797698259354 44.89976119995117,12.713718444108963 40.24704360961914,15.159797698259354 41.1356315612793,9.978920012712479 37.37150955200195,6.3098030388355255 42.57340621948242,5.553920775651932 44.89976119995117,0.8402024805545807 47.22611618041992,5.553920775651932" stroke-linejoin="round" stroke-opacity="0" stroke-width="0"/>
		<polygon points="62.455318450927734,0.8402024805545807 64.78166961669922,5.553920775651932 69.98357391357422,6.3098030388355255 66.21942901611328,9.978920012712479 67.10803985595703,15.159797698259354 62.455318450927734,12.713718444108963 57.8026008605957,15.159797698259354 58.69118881225586,9.978920012712479 54.927066802978516,6.3098030388355255 60.128963470458984,5.553920775651932 62.455318450927734,0.8402024805545807 64.78166961669922,5.553920775651932" stroke-linejoin="round" stroke-opacity="0" stroke-width="0"/>
		<polygon points="81,0.8402024805545807 83.32634735107422,5.553920716047287 88.52825927734375,6.309802979230881 84.76410675048828,9.978919953107834 85.6527099609375,15.159797638654709 81,12.713718384504318 76.34727478027344,15.159797638654709 77.23587036132812,9.978919953107834 73.47174072265625,6.309802979230881 78.67364501953125,5.553920716047287 81,0.8402024805545807 83.32634735107422,5.553920716047287" stroke-linejoin="round" stroke-opacity="0" stroke-width="0"/>
	</symbol>
</svg>
